<?xml version="1.0" encoding="utf-8"?>
<!-- Generator: Adobe Illustrator 23.0.2, SVG Export Plug-In . SVG Version: 6.00 Build 0)  -->
<svg version="1.1" id="图层_1" xmlns="http://www.w3.org/2000/svg" xmlns:xlink="http://www.w3.org/1999/xlink" x="0px" y="0px"
	 viewBox="0 0 200 173.1" style="enable-background:new 0 0 200 173.1;" xml:space="preserve">
<style type="text/css">
	.st0{fill:#272635;}
</style>
<path class="st0" d="M184.7,22.2h-14.1v13.9h14.1v90.1h-14.1v0.1c-2.6-0.3-5.2,0.6-6.4,2.8l-11.8,20.7l-11.8-20.7
	c-1.1-1.9-3.1-2.8-5.4-2.8v-0.1l-35.2,0v0h-1.7c-3.9,0-7.1,3.1-7.1,6.9c0,3.8,3.2,6.9,7.1,6.9h1.7h12.4h17.4l16.4,28.9
	c0.9,1.6,2.7,2.6,4.6,2.8c2.9,0.7,5.9-0.2,7.2-2.6l16.5-29h10.1c7.8,0,14.1-6.2,14.1-13.9l0-90.1C198.8,28.4,192.5,22.2,184.7,22.2z
	"/>
<path class="st0" d="M149.4,119.3c7.8,0,14.1-6.2,14.1-13.9V15.3c0-7.7-6.3-13.9-14.1-13.9l-133.9,0C7.7,1.4,1.4,7.6,1.4,15.3v90.1
	c0,7.5,6.1,13.6,13.8,13.8h9.1l22.1,29.5c1.3,1.8,3.5,2.5,5.8,2.3c2.3,0.1,4.5-0.7,5.7-2.6l18.7-29.1H149.4z M66.4,108.2l-14.7,22.9
	l-17.4-23.3c-1.1-1.5-2.8-2.3-4.7-2.4v0H15.5V15.3h133.9v90.1H72v0.1C69.7,105.5,67.6,106.3,66.4,108.2z"/>
<path class="st0" d="M36.6,60.4c0,5.8,4.7,10.6,10.6,10.6s10.6-4.7,10.6-10.6S53,49.8,47.2,49.8S36.6,54.5,36.6,60.4z"/>
<path class="st0" d="M71.8,60.4c0,5.8,4.7,10.6,10.6,10.6C88.3,71,93,66.2,93,60.4s-4.7-10.6-10.6-10.6
	C76.6,49.8,71.8,54.5,71.8,60.4z"/>
<path class="st0" d="M107.1,60.4c0,5.8,4.7,10.6,10.6,10.6c5.8,0,10.6-4.7,10.6-10.6s-4.7-10.6-10.6-10.6
	C111.8,49.8,107.1,54.5,107.1,60.4z"/>
</svg>
