<?xml version="1.0" encoding="utf-8"?>
<!-- Generator: Adobe Illustrator 23.0.2, SVG Export Plug-In . SVG Version: 6.00 Build 0)  -->
<svg version="1.1" id="图层_1" xmlns="http://www.w3.org/2000/svg" xmlns:xlink="http://www.w3.org/1999/xlink" x="0px" y="0px"
	 viewBox="0 0 112.2 116" style="enable-background:new 0 0 112.2 116;" xml:space="preserve">
<style type="text/css">
	.st0{fill:#222222;}
	.st1{fill:#FFEC00;stroke:#000222;stroke-width:3;stroke-miterlimit:10;}
</style>
<path class="st0" d="M56.4,90.3c6.1,0,11.4-3.9,13.3-9.7c0.1-0.4-0.1-0.8-0.4-1c-0.4-0.2-0.8,0-1,0.3c0,0-2.2,3.5-10.5,4.6
	c-1.2,0.2-2.4,0.3-3.6,0.3c-5.8,0-8.4-2.2-8.4-2.2c-0.3-0.3-0.7-0.3-1,0s-0.4,0.7-0.2,1C47.1,87.7,51.7,90.3,56.4,90.3z"/>
<path class="st1" d="M93,43.9c-5.7-15.5-20.5-26.5-37.9-26.5c-17.3,0-32.1,11-37.8,26.3c-0.3-0.3-0.6-0.7-1-1
	c3.3-18.7,19.4-33,38.8-33c19.3,0,35.4,14.1,38.8,32.7C93.6,42.9,93.3,43.4,93,43.9z M101.1,38.8c-0.1,0-0.1,0-0.2,0
	C96,17.8,77.4,2,55.2,2C32.3,2,13.2,18.6,9,40.6c-4.2,0.8-7.2,4.4-7.2,8.7v17.4c0,4.9,3.9,8.8,8.8,8.8c2.7,0,5.1-1.3,6.7-3.3
	C21.2,82.5,29,90.8,39,95.1c0.1-0.3,0.3-0.5,0.4-0.7c0.2-0.2,0.3-0.4,0.5-0.4s0.3,0.1,0.4,0.1C38,92.4,29.6,83.5,27.8,71.2
	c-0.8-5.4,3.3-10.8,8-11.6c7.6-1.4,15.2-3,22.8-4.4c4.8-0.9,8.1-3.5,10.2-8c0.5-1,1.2-3.1,1.5-6.1c0.1-0.5,0.5-0.8,0.9-0.8
	c0.3,0,0.6,0.2,0.8,0.4l0.2-0.1c3,4.3,8.9,14,9.8,24.1c1,11.6,0.4,19.6-8.4,27.7l0,0c-0.1,0.1-0.2,0.3-0.2,0.5s0.1,0.5,0.3,0.6
	c0.1,0,0.2,0.1,0.2,0.1c0.1,0,0.1,0,0.2,0s0.1,0,0.2,0c0.1-0.1,0.3-0.1,0.4-0.2c9.1-5,15.9-13.3,19.1-23.2c1.3,1.9,3.3,3.3,5.7,3.8
	c-3.8,17.1-19,27.8-37.9,29.5c-1.2-2.9-4.1-4.8-7.2-4.8c-4.3,0-7.8,3.4-7.8,7.6s3.5,7.6,7.8,7.6c3.3,0,6.3-2.1,7.3-5.3
	c21.9-1.8,39.4-14.8,43.1-35c3.3-1.4,5.5-4.6,5.5-8.2V47.7C110.1,42.8,106.1,38.8,101.1,38.8z"/>
</svg>
