<svg xmlns="http://www.w3.org/2000/svg" viewBox="0 0 289.41 221.95"><defs><style>.cls-1{fill:#ffec00;stroke-width:6px;}.cls-1,.cls-4{stroke:#000111;}.cls-1,.cls-3,.cls-4{stroke-miterlimit:10;}.cls-2{fill:#000111;}.cls-3,.cls-4{fill:#fff;stroke-width:3px;}.cls-3{stroke:#000222;}</style></defs><title>资源 76000</title><g id="图层_2" data-name="图层 2"><g id="图层_1-2" data-name="图层 1"><path class="cls-1" d="M72.31,56.63,56.32,88s-11,22,4,23c10.17.68,14-2,25-7,13.65-6.21,4-29,4-29Z"/><path class="cls-1" d="M127.82,133.5s-73-4-110,32c0,0-21,20-13,37,0,0,4,17,27,16,0,0,13-1,17-19,0,0,5.5-16.5,54-20,0,0,46-2,58,7,0,0,12,6,15,17,0,0,5,12,17,15,0,0,19.5,4.5,26-15,0,0,3.5-10.5,0-18l-85-165s-20-31-43,0l-21,41s-5,16,12,17c0,0,24-1,38,5,0,0,7.5,1.5,11,18,0,0,1.5,5.5,9,7,0,0,18-1,13,10l-8,14S141.32,136,127.82,133.5Z"/><circle class="cls-2" cx="108.32" cy="98" r="5"/><circle class="cls-1" cx="182.32" cy="25" r="22"/><rect class="cls-1" x="214.21" y="41.07" width="42" height="175.15" rx="21" ry="21" transform="translate(-32.76 120.76) rotate(-26.99)"/><path class="cls-3" d="M153.86,116.7a4.82,4.82,0,0,1-1.31,1.07,4.71,4.71,0,0,1-3.34.48c-1.43-.37-2.09-1.59-3.41-3.71-.88-1.43-2.21-3.51-4-6C141.82,108.5,156.57,108.57,153.86,116.7Z"/><path class="cls-4" d="M149.28,125.93s-7.53,6.82-22.59-3.67"/></g></g></svg>