<?xml version="1.0" encoding="utf-8"?>
<!-- Generator: Adobe Illustrator 25.3.1, SVG Export Plug-In . SVG Version: 6.00 Build 0)  -->
<svg version="1.1" id="图层_1" xmlns="http://www.w3.org/2000/svg" xmlns:xlink="http://www.w3.org/1999/xlink" x="0px" y="0px"
	 viewBox="0 0 128 88.6" style="enable-background:new 0 0 128 88.6;" xml:space="preserve">
<path d="M5.1,73.4c-2.9,2.9-2.9,7.1,0,10s7.1,2.9,10,0l43.7-44.1c2.9-2.9,7.5-2.9,10.4,0L112.9,83c2.9,2.9,7.1,2.9,10,0
	s2.9-7.1,0-10L77.6,28.5c-7.5-7.5-20-7.5-27.9,0C49.6,28.5,5.1,73.4,5.1,73.4z M119.2,1.8H8.4c-4.2,0-7.1,2.9-7.1,6.7
	s2.9,7.1,7.1,7.1h111.1c3.8,0,7.1-2.9,7.1-7.1C126.2,4.7,123.3,1.8,119.2,1.8z"/>
</svg>
