<?xml version="1.0" encoding="utf-8"?>
<!-- Generator: Adobe Illustrator 23.0.2, SVG Export Plug-In . SVG Version: 6.00 Build 0)  -->
<svg version="1.1" id="图层_1" xmlns="http://www.w3.org/2000/svg" xmlns:xlink="http://www.w3.org/1999/xlink" x="0px" y="0px"
	 viewBox="0 0 201.2 200" style="enable-background:new 0 0 201.2 200;" xml:space="preserve">
<path d="M194.2,120.1h-53.6c-3.7,0-6.2-2.5-6.2-6.2c0-3.7,2.5-6.2,6.2-6.2h53.6c3.7,0,6.2,2.5,6.2,6.2
	C200.4,117.6,197.9,120.1,194.2,120.1L194.2,120.1z M194.2,146.2h-53.6c-3.7,0-6.2-2.5-6.2-6.2c0-3.7,2.5-6.2,6.2-6.2h53.6
	c3.7,0,6.2,2.5,6.2,6.2C200.4,143.8,197.9,146.3,194.2,146.2L194.2,146.2z M194.2,173.7h-53.6c-3.7,0-6.2-2.5-6.2-6.2
	c0-3.7,2.5-6.2,6.2-6.2h53.6c3.7,0,6.2,2.5,6.2,6.2C200.4,171.2,197.9,173.7,194.2,173.7L194.2,173.7z M89.5,117.5
	c-3.7,0-7.5-1.2-10-3.7L5.9,67.7c-6.2-5-6.2-12.5,0-17.4L79.5,2.9c5-3.7,15-3.7,19.9,0L173,50.2c6.2,5,6.2,12.5,0,17.5l-73.5,46.1
	C96.9,116.3,93.2,117.5,89.5,117.5z M89.5,105.1L163,57.7L89.5,12.9L14.7,59L89.5,105.1 M103.2,137.5l-13.7,8.7h-1.2l-73.5-46.1
	l8.7-6.2l-10-7.5l-8.7,5c-6.2,5-6.2,12.5,0,17.5L78.2,155c2.5,2.5,6.2,3.7,10,3.7c3.7,0,7.5-1.2,10-2.5l11.2-7.5L103.2,137.5
	L103.2,137.5z"/>
<path d="M123.1,167.4l-33.7,21.2l-1.2-1.2l-73.5-46.1l8.7-6.2l-10-6.2l-7.5,5c-6.2,5-6.2,12.5,0,17.4l73.6,46.1
	c2.5,1.2,6.2,2.5,10,2.5c3.7,0,7.5-1.2,10-2.5l29.9-18.7L123.1,167.4L123.1,167.4z"/>
</svg>
